<svg width="80" height="80" viewBox="0 0 80 80" fill="none" xmlns="http://www.w3.org/2000/svg">
<g id="expert">
<rect width="80" height="80" rx="40" fill="#682AF4" fill-opacity="0.08" style="fill:#682AF4;fill:color(display-p3 0.4078 0.1647 0.9569);fill-opacity:0.08;"/>
<g id="setting-4">
<path id="Vector" d="M56 31H46" stroke="#682AF4" style="stroke:#682AF4;stroke:color(display-p3 0.4060 0.1640 0.9560);stroke-opacity:1;" stroke-width="2" stroke-miterlimit="10" stroke-linecap="round" stroke-linejoin="round"/>
<path id="Vector_2" d="M31 31H24" stroke="#682AF4" style="stroke:#682AF4;stroke:color(display-p3 0.4060 0.1640 0.9560);stroke-opacity:1;" stroke-width="2" stroke-miterlimit="10" stroke-linecap="round" stroke-linejoin="round"/>
<path id="Vector_3" d="M37 37C40.3137 37 43 34.3137 43 31C43 27.6863 40.3137 25 37 25C33.6863 25 31 27.6863 31 31C31 34.3137 33.6863 37 37 37Z" fill="#682AF4" style="fill:#682AF4;fill:color(display-p3 0.4060 0.1640 0.9560);fill-opacity:1;"/>
<path id="Vector_4" d="M57 49H50" stroke="#682AF4" style="stroke:#682AF4;stroke:color(display-p3 0.4060 0.1640 0.9560);stroke-opacity:1;" stroke-width="2" stroke-miterlimit="10" stroke-linecap="round" stroke-linejoin="round"/>
<path id="Vector_5" d="M33 49H23" stroke="#682AF4" style="stroke:#682AF4;stroke:color(display-p3 0.4060 0.1640 0.9560);stroke-opacity:1;" stroke-width="2" stroke-miterlimit="10" stroke-linecap="round" stroke-linejoin="round"/>
<path id="Vector_6" d="M44 55C47.3137 55 50 52.3137 50 49C50 45.6863 47.3137 43 44 43C40.6863 43 38 45.6863 38 49C38 52.3137 40.6863 55 44 55Z" fill="#682AF4" style="fill:#682AF4;fill:color(display-p3 0.4060 0.1640 0.9560);fill-opacity:1;"/>
</g>
</g>
</svg>
