<svg width="80" height="80" viewBox="0 0 80 80" fill="none" xmlns="http://www.w3.org/2000/svg">
<g id="expert">
<rect width="80" height="80" rx="40" fill="#0AC247" fill-opacity="0.08" style="fill:#0AC247;fill:color(display-p3 0.0392 0.7608 0.2784);fill-opacity:0.08;"/>
<g id="cloud-connection">
<path id="Vector" d="M30.2789 34.8021C23.2317 35.2578 23.249 44.5441 30.2789 44.9997H46.9642C48.985 45.0154 50.9369 44.3241 52.4396 43.0828C57.3795 39.1546 54.7368 31.2981 48.2251 30.5439C45.8933 17.7537 25.529 22.609 30.348 34.8021" fill="#0AC247" style="fill:#0AC247;fill:color(display-p3 0.0400 0.7600 0.2800);fill-opacity:1;"/>
<path id="Vector_2" d="M40 45V49" stroke="#0AC247" style="stroke:#0AC247;stroke:color(display-p3 0.0400 0.7600 0.2800);stroke-opacity:1;" stroke-width="2" stroke-miterlimit="10" stroke-linecap="round" stroke-linejoin="round"/>
<path id="Vector_3" d="M40 57C42.2091 57 44 55.2091 44 53C44 50.7909 42.2091 49 40 49C37.7909 49 36 50.7909 36 53C36 55.2091 37.7909 57 40 57Z" stroke="#0AC247" style="stroke:#0AC247;stroke:color(display-p3 0.0400 0.7600 0.2800);stroke-opacity:1;" stroke-width="2" stroke-miterlimit="10" stroke-linecap="round" stroke-linejoin="round"/>
<path id="Vector_4" d="M51 53H44" stroke="#0AC247" style="stroke:#0AC247;stroke:color(display-p3 0.0400 0.7600 0.2800);stroke-opacity:1;" stroke-width="2" stroke-miterlimit="10" stroke-linecap="round" stroke-linejoin="round"/>
<path id="Vector_5" d="M36 53H29" stroke="#0AC247" style="stroke:#0AC247;stroke:color(display-p3 0.0400 0.7600 0.2800);stroke-opacity:1;" stroke-width="2" stroke-miterlimit="10" stroke-linecap="round" stroke-linejoin="round"/>
</g>
</g>
</svg>
