<svg width="80" height="80" viewBox="0 0 80 80" fill="none" xmlns="http://www.w3.org/2000/svg">
<g id="expert">
<rect width="80" height="80" rx="40" fill="#F42A2F" fill-opacity="0.08" style="fill:#F42A2F;fill:color(display-p3 0.9569 0.1647 0.1843);fill-opacity:0.08;"/>
<g id="medal-star">
<path id="Vector" d="M52 35C52 37.4857 51.2629 39.7657 49.9943 41.6686C48.1429 44.4115 45.2114 46.3486 41.8 46.8457C41.2171 46.9486 40.6171 47 40 47C39.3829 47 38.7829 46.9486 38.2 46.8457C34.7886 46.3486 31.8571 44.4115 30.0057 41.6686C28.7371 39.7657 28 37.4857 28 35C28 28.3657 33.3657 23 40 23C46.6343 23 52 28.3657 52 35Z" fill="#F42A2F" style="fill:#F42A2F;fill:color(display-p3 0.9560 0.1640 0.1860);fill-opacity:1;"/>
<path id="Vector_2" d="M54.7696 51.3368L52.135 51.9905C51.5442 52.1413 51.0812 52.6107 50.9535 53.2309L50.3946 55.695C50.0912 57.0361 48.4626 57.4384 47.6163 56.3823L40 47L32.3837 56.399C31.5374 57.4551 29.9088 57.0528 29.6054 55.7118L29.0465 53.2477C28.9028 52.6275 28.4398 52.1414 27.865 52.0073L25.2304 51.3535C24.0169 51.0518 23.5858 49.4593 24.464 48.5374L30.6912 42C32.4156 44.682 35.146 46.3798 38.3235 46.8659C38.8663 46.9665 39.4252 47.0168 40 47.0168C40.5748 47.0168 41.1337 46.9665 41.6765 46.8659C44.854 46.3798 47.5844 44.682 49.3088 42L55.536 48.5374C56.4142 49.4426 55.9831 51.035 54.7696 51.3368Z" fill="#F42A2F" style="fill:#F42A2F;fill:color(display-p3 0.9560 0.1640 0.1860);fill-opacity:1;"/>
<path id="Vector_3" d="M41.0077 29.866L42.0693 31.9948C42.2133 32.2834 42.5912 32.5721 42.933 32.6262L44.8584 32.951C46.082 33.1494 46.3699 34.0515 45.4882 34.9355L43.9947 36.4329C43.7428 36.6854 43.5988 37.1726 43.6888 37.5334L44.1207 39.3916C44.4625 40.8529 43.6888 41.4302 42.3932 40.6544L40.5938 39.59C40.2699 39.3916 39.7301 39.3916 39.4062 39.59L37.6068 40.6544C36.3112 41.4122 35.5375 40.8529 35.8794 39.3916L36.3112 37.5334C36.3832 37.1906 36.2572 36.6854 36.0053 36.4329L34.5118 34.9355C33.6301 34.0515 33.918 33.1675 35.1416 32.951L37.067 32.6262C37.3909 32.5721 37.7687 32.2834 37.9127 31.9948L38.9743 29.866C39.4962 28.7113 40.4319 28.7113 41.0077 29.866Z" fill="white" style="fill:white;fill-opacity:1;"/>
</g>
</g>
</svg>
