<svg width="200" height="160" viewBox="0 0 200 160" fill="none" xmlns="http://www.w3.org/2000/svg">
<path id="&#226;&#128;&#156;" d="M86.1972 -9.94896e-06L86.1972 48.1119C86.1972 78.3217 79.061 102.937 64.7887 121.958C50.1409 141.352 28.5446 154.033 0 160L3.17901e-06 123.636C12.77 120.653 22.9108 115.058 30.4226 106.853C37.9343 99.021 42.8169 89.5105 45.0704 78.3216L11.2676 78.3216L11.2676 -1.64995e-05L86.1972 -9.94896e-06ZM200 0L200 48.1119C200 78.3217 192.864 102.937 178.592 121.958C163.944 141.352 142.535 154.033 114.366 160L114.366 123.636C127.136 120.653 137.277 115.058 144.789 106.853C152.3 99.021 157.183 89.5105 159.437 78.3217L125.634 78.3217L125.634 -6.5013e-06L200 0Z" fill="#672AF4" fill-opacity="0.16" style="fill:#672AF4;fill:color(display-p3 0.4039 0.1647 0.9569);fill-opacity:0.16;"/>
</svg>
